Coordinates
version=1
nRows=18
nColumns=32
inDegrees=yes

Units are S.I. units (second, meters, Newtons, ...)
If the header above contains a line with 'inDegrees', this indicates whether rotational values are in degrees (yes) or radians (no).

endheader
time	pelvis_tilt	pelvis_list	pelvis_rotation	pelvis_tx	pelvis_ty	pelvis_tz	hip_flexion_r	hip_adduction_r	hip_rotation_r	knee_angle_r	knee_adduction_r	med_cond_adduction_r	lat_cond_adduction_r	patella_r_constrained_knee_angle	ankle_angle_r	subtalar_angle_r	mtp_angle_r	hip_flexion_l	hip_adduction_l	hip_rotation_l	knee_angle_l	knee_adduction_l	med_cond_adduction_l	lat_cond_adduction_l	patella_l_constrained_knee_angle	ankle_angle_l	subtalar_angle_l	mtp_angle_l	lumbar_extension	lumbar_bending	lumbar_rotation
      0.00416667	     11.07433149	    -16.54379575	     89.47917703	      0.45916258	      1.12105056	      0.08682509	     26.84476128	     14.47582817	     39.91502661	     -3.15187141	      0.00000000	      0.00000000	     -0.00000000	     -0.05501053	    -11.25101211	    -19.91780048	     -0.00000000	    -18.23631756	     -9.35282340	      6.73147399	    -14.89371265	      0.00000000	      0.00000000	     -0.00000000	     -0.25994432	    -35.91170820	      3.05998711	      0.00000000	     -0.00000000	     -0.00000000	     -0.00000000
      0.00833333	     10.57775892	    -16.02062894	     89.21184745	      0.45923597	      1.12071932	      0.07153245	     26.20362069	     14.02798410	     39.92038208	     -2.65486367	      0.00000000	     -0.00000000	      0.00000000	     -0.04633611	    -10.85748953	    -19.91778057	     -0.00000000	    -19.15169392	     -8.68919283	      7.41933350	    -15.46257618	     -0.00000000	      0.00000000	     -0.00000000	     -0.26987287	    -36.17454433	      2.93759716	     -0.00000000	     -0.00000000	     -0.00000000	     -0.00000000
      0.01250000	     10.13143172	    -15.36176633	     88.89830996	      0.45934827	      1.12051222	      0.05622016	     25.39554626	     13.65872320	     39.92560421	     -2.20268314	      0.00000000	      0.00000000	     -0.00000000	     -0.03844407	    -10.56074314	    -19.91720318	      0.00000000	    -20.16742423	     -8.08166016	      7.82735825	    -16.12217030	      0.00000000	     -0.00000000	      0.00000000	     -0.28138495	    -36.22936726	      3.19348354	      0.00000000	     -0.00000000	     -0.00000000	     -0.00000000
      0.01666667	      9.72741265	    -14.63456279	     88.60072956	      0.45949288	      1.12037131	      0.04071976	     24.46650639	     13.32766580	     39.92969219	     -1.75158546	     -0.00000000	     -0.00000000	     -0.00000000	     -0.03057093	    -10.33793393	    -19.91626057	     -0.00000000	    -21.22509361	     -7.52863835	      8.11797873	    -16.82269665	      0.00000000	     -0.00000000	      0.00000000	     -0.29361145	    -36.37532204	      3.45774405	      0.00000000	     -0.00000000	     -0.00000000	     -0.00000000
      0.02083333	      9.44077749	    -13.73533086	     88.33034296	      0.45950209	      1.12031262	      0.02517221	     23.31576038	     13.09423440	     39.93338709	     -1.29575339	     -0.00000000	     -0.00000000	      0.00000000	     -0.02261516	    -10.27548879	    -19.91507009	     -0.00000000	    -22.40817255	     -7.08354932	      8.21421212	    -17.62500289	     -0.00000000	     -0.00000000	      0.00000000	     -0.30761433	    -36.42361437	      3.76804915	     -0.00000000	     -0.00000000	     -0.00000000	     -0.00000000
      0.02500000	      9.17982942	    -12.75272041	     88.04659186	      0.45955092	      1.12028385	      0.00952383	     22.03832757	     12.88954542	     39.93602135	     -0.88397034	     -0.00000000	      0.00000000	     -0.00000000	     -0.01542819	    -10.14446274	    -19.91393827	      0.00000000	    -23.65104676	     -6.66145964	      8.15035752	    -18.47335195	      0.00000000	      0.00000000	     -0.00000000	     -0.32242082	    -36.48551730	      4.12098748	     -0.00000000	     -0.00000000	      0.00000000	     -0.00000000
      0.02916667	      8.83271553	    -11.78568610	     87.74790371	      0.45943162	      1.12024689	     -0.00607251	     20.74979289	     12.58490181	     39.93868147	     -0.54645551	     -0.00000000	      0.00000000	     -0.00000000	     -0.00953745	     -9.99155933	    -19.91275550	      0.00000000	    -24.82140948	     -6.13316878	      8.16642800	    -19.31697699	      0.00000000	     -0.00000000	      0.00000000	     -0.33714485	    -36.74919314	      4.23685577	      0.00000000	     -0.00000000	      0.00000000	     -0.00000000
      0.03333333	      8.58066744	    -10.72525933	     87.48439311	      0.45935722	      1.12008730	     -0.02185704	     19.31436794	     12.37204769	     39.94078583	     -0.23961125	      0.00000000	     -0.00000000	      0.00000000	     -0.00418201	     -9.97105586	    -19.91133379	      0.00000000	    -26.05559606	     -5.71362214	      7.97009591	    -20.27700007	      0.00000000	     -0.00000000	      0.00000000	     -0.35390041	    -36.69312508	      4.44446363	     -0.00000000	     -0.00000000	      0.00000000	     -0.00000000
      0.03750000	      8.34065612	     -9.66040720	     87.21919632	      0.45928558	      1.11984586	     -0.03763886	     17.86706379	     12.17869007	     39.94217992	     -0.06805348	     -0.00000000	      0.00000000	     -0.00000000	     -0.00118776	     -9.90374736	    -19.90985096	     -0.00000000	    -27.22172270	     -5.32087110	      7.61065187	    -21.34398915	      0.00000000	      0.00000000	     -0.00000000	     -0.37252289	    -36.67587338	      4.49050794	     -0.00000000	     -0.00000000	      0.00000000	     -0.00000000
      0.04166667	      8.10847560	     -8.65798605	     86.97112623	      0.45920263	      1.11943517	     -0.05352876	     16.46352461	     11.99593737	     39.94355688	     -0.00767494	     -0.00000000	     -0.00000000	      0.00000000	     -0.00013395	     -9.91289738	    -19.90839441	     -0.00000000	    -28.29505881	     -4.95143453	      7.22173411	    -22.42129942	      0.00000000	     -0.00000000	      0.00000000	     -0.39132550	    -36.59644394	      4.55324289	     -0.00000000	      0.00000000	      0.00000000	     -0.00000000
      0.04583333	      7.86892036	     -7.91862468	     86.71103361	      0.45916990	      1.11858603	     -0.06942206	     15.32259964	     11.81817756	     39.94467121	      0.00859817	      0.00000000	      0.00000000	     -0.00000000	      0.00015007	    -10.09202518	    -19.90656653	      0.00000000	    -29.01703171	     -4.59751370	      6.66379541	    -23.65928234	      0.00000000	     -0.00000000	      0.00000000	     -0.41293238	    -36.34403693	      4.47678453	      0.00000000	      0.00000000	      0.00000000	     -0.00000000
      0.05000000	      7.57607667	     -7.43143469	     86.48769166	      0.45926877	      1.11731413	     -0.08535292	     14.43980896	     11.60207109	     39.94528359	     -0.06069429	     -0.00000000	     -0.00000000	      0.00000000	     -0.00105932	    -10.31191942	    -19.90492978	     -0.00000000	    -29.40027534	     -4.25145645	      6.08361774	    -25.00488765	      0.00000000	     -0.00000000	      0.00000000	     -0.43641762	    -36.03269903	      4.32174984	     -0.00000000	      0.00000000	      0.00000000	     -0.00000000
      0.05416667	      7.26314654	     -7.08194756	     86.27259204	      0.45930022	      1.11575827	     -0.10128070	     13.69078092	     11.36088277	     39.94582435	     -0.18131830	     -0.00000000	     -0.00000000	      0.00000000	     -0.00316460	    -10.59842825	    -19.90339429	     -0.00000000	    -29.59195991	     -3.90980130	      5.46763293	    -26.44628757	      0.00000000	      0.00000000	     -0.00000000	     -0.46157479	    -35.50600902	      3.98772898	     -0.00000000	      0.00000000	     -0.00000000	     -0.00000000
      0.05833333	      6.97671882	     -6.79009083	     86.03979679	      0.45942155	      1.11400727	     -0.11729906	     12.97878082	     11.16361847	     39.94627983	     -0.35590969	      0.00000000	      0.00000000	     -0.00000000	     -0.00621180	    -10.91492546	    -19.90119701	     -0.00000000	    -29.69500238	     -3.59848868	      4.77420719	    -27.92596895	      0.00000000	      0.00000000	     -0.00000000	     -0.48740010	    -35.02305611	      3.49876580	     -0.00000000	      0.00000000	      0.00000000	      0.00000000
      0.06250000	      6.65315743	     -6.49517835	     85.84440031	      0.45948204	      1.11213093	     -0.13331932	     12.24286006	     10.89940219	     39.94658836	     -0.51890168	     -0.00000000	      0.00000000	     -0.00000000	     -0.00905654	    -11.30027966	    -19.89895219	      0.00000000	    -29.75758828	     -3.29804988	      4.06718339	    -29.45304380	     -0.00000000	      0.00000000	     -0.00000000	     -0.51405259	    -34.37008046	      2.92247070	     -0.00000000	      0.00000000	      0.00000000	      0.00000000
      0.06666667	      6.44543948	     -6.17025644	     85.63030431	      0.45972837	      1.11024426	     -0.14920417	     11.44778084	     10.77594791	     39.94654134	     -0.69364514	      0.00000000	     -0.00000000	      0.00000000	     -0.01210639	    -11.93338079	    -19.89687222	      0.00000000	    -29.79808105	     -3.12423550	      3.25053064	    -31.15364424	     -0.00000000	      0.00000000	      0.00000000	     -0.54373367	    -33.46034037	      2.35097574	     -0.00000000	      0.00000000	      0.00000000	      0.00000000
      0.07083333	      6.29017897	     -5.83039034	     85.39342172	      0.45986763	      1.10830916	     -0.16519496	     10.60364419	     10.69985243	     39.94621628	     -0.93753190	      0.00000000	      0.00000000	     -0.00000000	     -0.01636302	    -12.67306700	    -19.89508361	      0.00000000	    -29.82740933	     -2.99515959	      2.26619288	    -32.88171909	     -0.00000000	      0.00000000	     -0.00000000	     -0.57389426	    -32.42366490	      1.49300606	     -0.00000000	      0.00000000	      0.00000000	      0.00000000
      0.07500000	      6.05942334	     -5.45549775	     85.14611139	      0.46008210	      1.10614045	     -0.18118372	      9.69996829	     10.55945423	     39.94578554	     -1.16174125	     -0.00000000	      0.00000000	     -0.00000000	     -0.02027621	    -13.37857185	    -19.89262090	     -0.00000000	    -29.84914397	     -2.82694894	      1.29973151	    -34.67904316	      0.00000000	      0.00000000	     -0.00000000	     -0.60526348	    -31.08887990	      0.83671367	      0.00000000	     -0.00000000	      0.00000000	      0.00000000
